<svg xmlns="http://www.w3.org/2000/svg" viewBox="0 0 128 128">
  <!-- Rounded square background: dark navy matches site dark-mode bg -->
  <rect width="128" height="128" rx="26" fill="#0f172a"/>

  <!-- Left page of open book -->
  <path d="M18 38 C18 33 23 30 32 28 C44 26 56 27 63 31 L63 96 C56 92 44 91 32 93 C23 95 18 92 18 87 Z" fill="#f8fafc"/>

  <!-- Right page of open book -->
  <path d="M110 38 C110 33 105 30 96 28 C84 26 72 27 65 31 L65 96 C72 92 84 91 96 93 C105 95 110 92 110 87 Z" fill="#e2e8f0"/>

  <!-- Spine -->
  <rect x="61" y="31" width="6" height="65" rx="2" fill="#2563eb"/>

  <!-- Left page: 3 text lines -->
  <line x1="30" y1="50" x2="55" y2="48" stroke="#94a3b8" stroke-width="3.5" stroke-linecap="round"/>
  <line x1="30" y1="63" x2="55" y2="61" stroke="#94a3b8" stroke-width="3.5" stroke-linecap="round"/>
  <line x1="30" y1="76" x2="47" y2="74" stroke="#94a3b8" stroke-width="3.5" stroke-linecap="round"/>

  <!-- Right page: 3 text lines -->
  <line x1="73" y1="48" x2="98" y2="50" stroke="#64748b" stroke-width="3.5" stroke-linecap="round"/>
  <line x1="73" y1="61" x2="98" y2="63" stroke="#64748b" stroke-width="3.5" stroke-linecap="round"/>
  <line x1="73" y1="74" x2="88" y2="76" stroke="#64748b" stroke-width="3.5" stroke-linecap="round"/>
</svg>
